<svg width="44" height="44" viewBox="0 0 44 44" fill="none" xmlns="http://www.w3.org/2000/svg">
<mask id="mask0_1693_156" style="mask-type:alpha" maskUnits="userSpaceOnUse" x="0" y="-1" width="44" height="45">
<rect y="-0.00390625" width="43.5442" height="43.5442" fill="#D9D9D9"/>
</mask>
<g mask="url(#mask0_1693_156)">
<path d="M21.7723 1.8125L38.1921 11.6099C38.7364 11.9426 39.1597 12.3962 39.4621 12.9707C39.7645 13.5452 39.9157 14.15 39.9157 14.785V34.4706C39.9157 35.4685 39.5604 36.3228 38.8498 37.0334C38.1392 37.744 37.2849 38.0993 36.287 38.0993H7.25759C6.2597 38.0993 5.40545 37.744 4.69483 37.0334C3.98421 36.3228 3.62891 35.4685 3.62891 34.4706V14.785C3.62891 14.15 3.7801 13.5452 4.08249 12.9707C4.38488 12.3962 4.80823 11.9426 5.35253 11.6099L21.7723 1.8125ZM21.7723 22.9496L35.9242 14.5129L21.7723 6.0762L7.62046 14.5129L21.7723 22.9496ZM21.7723 27.2133L7.25759 18.5044V34.4706H36.287V18.5044L21.7723 27.2133Z" fill="#3343FF"/>
</g>
</svg>
